<?xml version="1.0" standalone="no"?><!DOCTYPE svg PUBLIC "-//W3C//DTD SVG 1.1//EN" "http://www.w3.org/Graphics/SVG/1.1/DTD/svg11.dtd"><svg t="1522427473974" class="icon" style="" viewBox="0 0 1024 1024" version="1.1" xmlns="http://www.w3.org/2000/svg" p-id="898" xmlns:xlink="http://www.w3.org/1999/xlink" width="200" height="200"><defs><style type="text/css"></style></defs><path d="M603.78 366.91l-24.842 23.821H324.935s-39.545-1.519-47.148 38.54V668.57s3.043 33.966 42.076 39.044h300.139s40.547-0.521 44.111-43.123V469.313l26.354-26.355v243.855s0.505 44.616-44.61 44.616H295.531s-36.505 2.018-44.615-42.598V410.006s4.058-44.117 49.685-43.097H603.78z" fill="#BB2748" p-id="899"></path><path d="M479.567 440.918c0 7.563-6.127 13.692-13.689 13.692h-135.36c-7.565 0-13.693-6.129-13.693-13.692 0-7.558 6.128-13.688 13.693-13.688h135.36c7.562 0.001 13.689 6.131 13.689 13.688zM445.282 497.187c0 6.162-7.142 11.169-15.972 11.169h-96.52c-8.819 0-15.967-5.007-15.967-11.169 0-6.141 7.147-11.148 15.967-11.148h96.52c8.831 0 15.972 5.007 15.972 11.148zM429.37 550.439c0 6.988-4.522 12.667-10.123 12.667h-92.302c-5.593 0-10.121-5.679-10.121-12.667 0-6.989 4.528-12.668 10.121-12.668h92.302c5.601 0 10.123 5.679 10.123 12.668zM583.49 605.688c0 7.005-5.668 12.689-12.678 12.689h-61.339c-6.999 0-12.67-5.685-12.67-12.689 0-6.988 5.671-12.667 12.67-12.667h61.339c7.01 0 12.678 5.678 12.678 12.667zM583.49 658.918c0 7.011-5.657 12.689-12.667 12.689H449.651c-6.996 0-12.667-5.679-12.667-12.689 0-6.988 5.671-12.667 12.667-12.667h121.172c7.01 0 12.667 5.679 12.667 12.667zM534.839 512.415l-13.709 31.433 30.934-14.192c-0.001-0.001-2.54-16.221-17.225-17.241zM586.099 514.604c-9.699 9.662-25.399 9.651-35.071-0.032-9.667-9.704-9.641-25.41 0.032-35.072l79.064-78.866c9.688-9.667 25.399-9.646 35.062 0.038 9.683 9.699 9.656 25.389-0.043 35.072l-79.044 78.86zM705.937 324.065s48.147-21.54 39.296 31.175l-50.944 52.731s-8.132 4.316-12.437-6.575c0 0-10.14-14.981-16.741-16.742 0 0-12.163-3.8-6.076-13.945l46.902-46.644zM620.64 398.031c-3.21 3.258-8.454 3.295-11.686 0.086-3.264-3.21-3.296-8.443-0.086-11.702l86.29-87.648c3.199-3.226 8.448-3.279 11.69-0.069 3.253 3.188 3.296 8.416 0.081 11.685l-86.289 87.648zM741.341 320.931c4.53 5.518 12.684 6.313 18.196 1.793l8.824-7.247c5.519-4.53 6.313-12.673 1.793-18.196-4.53-5.523-12.684-6.318-18.207-1.782l-8.803 7.235a12.928 12.928 0 0 0-1.803 18.197z" fill="#BB2748" p-id="900"></path><path d="M512.013 93.174C280.69 93.174 93.182 280.695 93.182 512c0 231.307 187.508 418.826 418.831 418.826 231.315 0 418.806-187.52 418.806-418.826-0.001-231.305-187.491-418.826-418.806-418.826z m-0.001 819.795c-221.459 0-400.973-179.524-400.973-400.969 0-221.442 179.514-400.969 400.973-400.969 221.453 0 400.949 179.526 400.949 400.969 0 221.444-179.496 400.969-400.949 400.969z" fill="#BB2748" p-id="901"></path></svg>